<svg xmlns="http://www.w3.org/2000/svg" xmlns:xlink="http://www.w3.org/1999/xlink" viewBox="0 0 994.2 980"><defs><style>.cls-1{fill:none;}.cls-2,.cls-23{opacity:0.3;}.cls-2{fill:url(#radial-gradient);}.cls-3{fill:#fff;}.cls-4{clip-path:url(#clip-path);}.cls-5{fill:url(#radial-gradient-2);}.cls-6{fill:url(#radial-gradient-3);}.cls-7{fill:url(#radial-gradient-4);}.cls-8{fill:url(#radial-gradient-5);}.cls-9{fill:url(#radial-gradient-6);}.cls-10{fill:url(#radial-gradient-7);}.cls-11{fill:url(#radial-gradient-8);}.cls-12{fill:url(#radial-gradient-9);}.cls-13{fill:url(#radial-gradient-10);}.cls-14{fill:url(#radial-gradient-11);}.cls-15{fill:url(#radial-gradient-12);}.cls-16{fill:url(#radial-gradient-13);}.cls-17{fill:url(#radial-gradient-14);}.cls-18{fill:url(#radial-gradient-15);}.cls-19{fill:url(#radial-gradient-16);}.cls-20{fill:url(#radial-gradient-17);}.cls-21{fill:url(#radial-gradient-18);}.cls-22,.cls-25{opacity:0.66;}.cls-22{fill:url(#Super_Soft_Black_Vignette);}.cls-23{fill:url(#radial-gradient-19);}.cls-24{fill:#f7e474;opacity:0.84;}.cls-25{fill:url(#radial-gradient-20);}</style><radialGradient id="radial-gradient" cx="488.55" cy="464.32" r="427.07" gradientTransform="translate(-1.78 37.26) rotate(-1.23)" gradientUnits="userSpaceOnUse"><stop offset="0" stop-color="#c8c7c7"/><stop offset="0.65" stop-color="#c8c7c7"/><stop offset="1" stop-color="#aaa9aa"/></radialGradient><clipPath id="clip-path"><circle class="cls-1" cx="496.65" cy="490.96" r="427.06"/></clipPath><radialGradient id="radial-gradient-2" cx="440.36" cy="595.34" r="58.37" gradientTransform="matrix(0.81, 0.59, -0.59, 0.81, 422.99, 89.6)" xlink:href="#radial-gradient"/><radialGradient id="radial-gradient-3" cx="449.42" cy="218.69" r="52.69" gradientTransform="matrix(0.81, 0.59, -0.59, 0.81, 422.99, 89.6)" xlink:href="#radial-gradient"/><radialGradient id="radial-gradient-4" cx="445.14" cy="402.42" r="57.64" gradientTransform="matrix(0.81, 0.59, -0.59, 0.81, 422.99, 89.6)" xlink:href="#radial-gradient"/><radialGradient id="radial-gradient-5" cx="498.73" cy="311.01" r="49.31" gradientTransform="matrix(-0.23, 0.97, -0.97, -0.23, 1062.44, 219.82)" xlink:href="#radial-gradient"/><radialGradient id="radial-gradient-6" cx="623.07" cy="545.38" r="49.96" gradientTransform="matrix(0.81, 0.59, -0.59, 0.81, 422.99, 89.6)" xlink:href="#radial-gradient"/><radialGradient id="radial-gradient-7" cx="61.91" cy="147.09" r="52.69" gradientTransform="matrix(0.81, 0.59, -0.59, 0.81, 422.99, 89.6)" xlink:href="#radial-gradient"/><radialGradient id="radial-gradient-8" cx="-28.61" cy="284.89" r="40.53" gradientTransform="matrix(0.81, 0.59, -0.59, 0.81, 422.99, 89.6)" xlink:href="#radial-gradient"/><radialGradient id="radial-gradient-9" cx="388.85" cy="330.37" r="19.36" gradientTransform="matrix(0.81, 0.59, -0.59, 0.81, 422.99, 89.6)" xlink:href="#radial-gradient"/><radialGradient id="radial-gradient-10" cx="166.53" cy="283.68" r="56.29" gradientTransform="translate(474.71 98.73) rotate(45)" xlink:href="#radial-gradient"/><radialGradient id="radial-gradient-11" cx="52.34" cy="433.05" r="83.76" gradientTransform="translate(645.34 519.85) rotate(103.28)" xlink:href="#radial-gradient"/><radialGradient id="radial-gradient-12" cx="174.04" cy="118.72" r="28.37" gradientTransform="matrix(0.81, 0.59, -0.59, 0.81, 422.99, 89.6)" xlink:href="#radial-gradient"/><radialGradient id="radial-gradient-13" cx="67.52" cy="560.6" r="20.64" gradientTransform="matrix(0.81, 0.59, -0.59, 0.81, 422.99, 89.6)" xlink:href="#radial-gradient"/><radialGradient id="radial-gradient-14" cx="297.39" cy="492.21" r="91.19" gradientTransform="matrix(0.81, 0.59, -0.59, 0.81, 422.99, 89.6)" xlink:href="#radial-gradient"/><radialGradient id="radial-gradient-15" cx="510.89" cy="507.8" r="52.69" gradientTransform="matrix(0.81, 0.59, -0.59, 0.81, 422.99, 89.6)" xlink:href="#radial-gradient"/><radialGradient id="radial-gradient-16" cx="267.26" cy="361.22" r="52.69" gradientTransform="matrix(0.81, 0.59, -0.59, 0.81, 422.99, 89.6)" xlink:href="#radial-gradient"/><radialGradient id="radial-gradient-17" cx="599.6" cy="386.66" r="88.71" gradientTransform="translate(1196.71 259.42) rotate(103.28)" xlink:href="#radial-gradient"/><radialGradient id="radial-gradient-18" cx="588.15" cy="248.41" r="48.64" gradientTransform="matrix(0.81, 0.59, -0.59, 0.81, 422.99, 89.6)" xlink:href="#radial-gradient"/><radialGradient id="Super_Soft_Black_Vignette" cx="490.09" cy="463.94" r="656.05" gradientTransform="translate(-1.78 37.26) rotate(-1.23)" gradientUnits="userSpaceOnUse"><stop offset="0.57" stop-color="#130c0e" stop-opacity="0"/><stop offset="0.8" stop-color="#130c0e" stop-opacity="0.65"/><stop offset="0.82" stop-color="#130c0e" stop-opacity="0.7"/><stop offset="1" stop-color="#130c0e" stop-opacity="0.95"/></radialGradient><radialGradient id="radial-gradient-19" cx="766.03" cy="139.67" r="1.88" xlink:href="#radial-gradient"/><radialGradient id="radial-gradient-20" cx="481.49" cy="465" fx="54.19004226752526" r="427.31" gradientTransform="translate(-1.78 37.26) rotate(-1.23)" gradientUnits="userSpaceOnUse"><stop offset="0" stop-color="#130c0e" stop-opacity="0"/><stop offset="0.39" stop-color="#fff" stop-opacity="0"/><stop offset="0.7" stop-color="#130c0e" stop-opacity="0.1"/><stop offset="0.85" stop-color="#292325" stop-opacity="0.26"/></radialGradient></defs><g id="Layer_4" data-name="Layer 4"><path class="cls-2" d="M923.63,481.77c.09,3.93.12,7.8.09,11.67,0,2.82,0,5.63-.14,8.39,0,1.49,0,3-.11,4.46,0,1.11-.06,2.18-.14,3.29-.06,2.07-.18,4.09-.3,6.16,0,.22,0,.38,0,.54-.2,3.08-.39,6.16-.65,9.19-.16,2.23-.33,4.46-.54,6.64l-.27,2.4c0,.63-.08,1.27-.17,1.86,0,.21-.05.37,0,.58-.27,2.24-.49,4.47-.81,6.76a12.52,12.52,0,0,1-.19,1.33c0,.64-.13,1.28-.22,1.91-.09.8-.23,1.6-.32,2.4s-.18,1.44-.33,2.18c-.46,3.2-1,6.39-1.49,9.53-.33,2-.65,4.1-1,6.13l-.15.8c-.52,2.87-1,5.75-1.67,8.63-.38,2-.76,3.89-1.25,5.81a.72.72,0,0,0-.05.32q-.87,4.15-1.89,8.32c-.54,2.13-1.07,4.32-1.66,6.45-.83,3.36-1.72,6.73-2.65,10-.81,2.87-1.75,5.67-2.62,8.51,0,.07,0,.14-.07.2-.92,3-1.78,6.06-2.77,9-1.64,5-3.39,10-5.25,15q-3,8.1-6.39,16.06c-1.16,2.67-2.33,5.35-3.49,8-.91,2-1.82,4.12-2.84,6.11a11.86,11.86,0,0,1-.81,1.82c-.81,1.77-1.62,3.48-2.49,5.2-.35.86-.76,1.66-1.17,2.47a1.94,1.94,0,0,1-.3.64c-.66,1.29-1.33,2.57-2,3.81-.81,1.61-1.63,3.22-2.44,4.77-.36.7-.77,1.45-1.12,2.15s-.77,1.4-1.18,2.1-.71,1.44-1.07,2.14a.31.31,0,0,1-.15.22c-.57,1-1.07,1.93-1.59,2.84-.92,1.61-1.84,3.28-2.76,4.89-2.81,4.89-5.78,9.84-8.81,14.68a1.77,1.77,0,0,1-.36.53c-1.59,2.53-3.23,5-4.88,7.54-3.29,4.95-6.68,9.91-10.24,14.81q-7.58,10.51-15.64,20.39c-5,6.16-10.19,12.11-15.58,18q-3.2,3.48-6.54,7c-1.14,1.25-2.38,2.55-3.58,3.79s-2.39,2.39-3.58,3.53c-1.77,1.84-3.58,3.63-5.4,5.37-.63.6-1.31,1.2-1.93,1.79-5,4.78-10,9.34-15.2,13.75a13.48,13.48,0,0,1-1,1,9.21,9.21,0,0,1-.94.76c-1.92,1.69-3.9,3.33-5.89,4.85a33.87,33.87,0,0,1-2.6,2.24c-1.62,1.3-3.24,2.61-4.91,3.82a2.7,2.7,0,0,1-.47.38,8,8,0,0,0-.68.49.62.62,0,0,1-.26.27c-2.4,1.86-4.8,3.71-7.26,5.46-1.46,1.15-3,2.24-4.54,3.34-1.25.93-2.51,1.86-3.76,2.68-1.41,1-2.82,2-4.24,3s-2.68,1.75-4,2.66c-.82.56-1.63,1.14-2.46,1.67-2.1,1.37-4.24,2.8-6.39,4.17-2.87,1.86-5.81,3.68-8.74,5.39-2.15,1.32-4.24,2.58-6.45,3.8-.83.49-1.62,1-2.46,1.43q-4.25,2.47-8.65,4.8c-.47.33-1,.55-1.47.83-2.52,1.33-5,2.66-7.61,3.93-3.09,1.66-6.25,3.16-9.4,4.66-2,.95-3.94,1.89-5.93,2.73-1.68.83-3.42,1.61-5.15,2.39-4.1,1.79-8.2,3.57-12.36,5.2-3.37,1.4-6.73,2.75-10.15,4-3.27,1.18-6.48,2.37-9.8,3.5-.52.22-1,.4-1.63.62-1.63.51-3.27,1.08-4.9,1.59-1.9.68-3.85,1.3-5.74,1.88-3.32,1.08-6.59,2.05-9.92,3-1.52.51-3,1-4.58,1.32-3.22.92-6.44,1.78-9.71,2.59-3.91,1-7.81,1.92-11.77,2.8s-7.87,1.71-11.84,2.43c-3.33.66-6.6,1.26-9.93,1.81-1.8.36-3.6.66-5.45.86-1.27.24-2.54.43-3.86.61-1.54.25-3.07.44-4.66.69-1.27.13-2.54.32-3.81.45-3,.38-6.08.77-9.15,1.05s-6,.6-8.95.83c-2.12.2-4.24.35-6.36.5-6.47.41-13,.71-19.62.85h-.14c-1.23,0-2.47,0-3.7,0q-9.11.12-18.12-.09c-1.22,0-2.45-.05-3.61-.08-2.45,0-4.89-.16-7.28-.37-4.68-.22-9.35-.54-14-1-2.6-.21-5.21-.48-7.76-.79s-5.16-.58-7.77-.9l-2.07-.27c-4.47-.54-8.89-1.24-13.36-1.94-6.23-.93-12.41-2.12-18.6-3.42l-.64-.15c-3.35-.67-6.66-1.39-10-2.17s-6.5-1.61-9.76-2.44c-7.36-1.92-14.68-4-21.89-6.33-2.4-.74-4.76-1.54-7.11-2.28-11.06-3.74-21.92-8-32.58-12.57-2.47-1-4.88-2.12-7.23-3.18-.38-.16-.76-.36-1.13-.51-2.36-1.06-4.66-2.13-6.92-3.3-.58-.25-1.17-.51-1.76-.81a1,1,0,0,1-.33-.21,11,11,0,0,1-1.12-.5c-1.5-.71-3-1.48-4.51-2.29s-3.27-1.58-4.88-2.45c-1.07-.56-2.2-1.12-3.28-1.78-2.3-1.23-4.56-2.45-6.87-3.73-1.61-.81-3.16-1.68-4.72-2.6-.54-.31-1.08-.62-1.67-.92-.11-.11-.21-.16-.32-.26-1.56-.92-3.12-1.84-4.68-2.71-2.9-1.74-5.8-3.54-8.65-5.34-1-.56-1.94-1.17-2.91-1.84-.48-.26-.91-.57-1.4-.88-1.29-.82-2.53-1.64-3.76-2.46-.49-.31-1-.67-1.51-1-2-1.28-3.93-2.62-5.93-4-1.83-1.24-3.61-2.52-5.38-3.76-1.08-.72-2.16-1.49-3.18-2.32-2.91-2.06-5.72-4.17-8.52-6.39-.54-.36-1.08-.83-1.62-1.24-1.94-1.45-3.89-3-5.78-4.55-1.13-.88-2.32-1.81-3.45-2.74-.6-.51-1.25-1-1.84-1.55-2.7-2.22-5.35-4.45-8-6.72-2.49-2.23-5-4.46-7.47-6.74-2.38-2.07-4.7-4.25-7-6.43-1.41-1.33-2.76-2.76-4.15-4.12h0c-3.16-3.09-6.32-6.16-9.41-9.33-.43-.52-1-1.1-1.41-1.62-2.11-2.13-4.13-4.31-6.08-6.5-.38-.42-.76-.78-1.14-1.2q-3.34-3.74-6.53-7.5c-.44-.46-.82-.88-1.2-1.35a.27.27,0,0,1-.16-.21c-1.8-2.08-3.59-4.17-5.23-6.31-.82-.88-1.52-1.71-2.23-2.6-1.15-1.46-2.29-2.92-3.44-4.44-.82-1-1.58-2-2.29-3-1.42-1.72-2.73-3.5-4-5.28a15,15,0,0,1-.93-1.25c-1.31-1.72-2.57-3.45-3.83-5.22s-2.68-3.66-3.89-5.54c-.38-.53-.71-1.05-1.09-1.57-1.48-2-2.85-4.08-4.17-6.17,0-.06-.05-.11-.11-.16-1.42-2.2-2.9-4.45-4.39-6.7s-2.8-4.55-4.18-6.86c-.27-.47-.55-.94-.88-1.41-.05-.05-.1-.16-.16-.21-1.6-2.67-3.19-5.35-4.68-8a21.59,21.59,0,0,1-1.1-1.94c-1.27-2.15-2.48-4.3-3.65-6.5-1.65-3-3.26-6.09-4.81-9.18-2.77-5.36-5.38-10.82-7.83-16.28-2.73-5.78-5.24-11.62-7.6-17.51-3.69-8.94-7-18-10-27.11-.68-2-1.31-3.9-1.93-5.9v-.11c-1.14-3.48-2.17-7-3.15-10.49-.34-1-.57-1.85-.8-2.74-.86-3.12-1.67-6.28-2.48-9.39a2.13,2.13,0,0,1-.24-1c-3-11.61-5.38-23.39-7.34-35.23-.55-3.54-1.1-7.14-1.61-10.74a16.55,16.55,0,0,1-.31-2.27c-.45-3.65-.9-7.3-1.3-11-.79-7.2-1.37-14.35-1.74-21.61-.31-4.77-.47-9.54-.57-14.31-.08-3.93-.11-7.8-.09-11.68,0-2.81,0-5.62.14-8.38,0-1.49,0-3,.11-4.46,0-1.12.06-2.18.15-3.3.06-2.07.17-4.08.29-6.16,0-.21,0-.37,0-.53.2-3.08.4-6.16.65-9.19.16-2.39.38-4.73.59-7.07.08-1.22.21-2.45.4-3.67a.15.15,0,0,1,0-.21l.14-1.23q.26-2.79.67-5.58c.09-1.07.22-2.08.36-3.09,0-.37.14-.8.19-1.22.13-1.12.27-2.24.46-3.36,0-.32.09-.63.13-1,.14-1,.28-1.91.47-2.87A4,4,0,0,1,74.5,426c.18-1.17.37-2.4.55-3.62.15-.86.29-1.71.43-2.56.28-1.7.61-3.41.9-5.11a4,4,0,0,0,.14-.75c.52-2.88,1-5.75,1.67-8.63.38-2,.82-3.94,1.25-5.86a.52.52,0,0,0,0-.27q.87-4.16,1.89-8.32c.54-2.19,1.08-4.32,1.67-6.51.83-3.36,1.71-6.67,2.65-10,.73-2.63,1.6-5.21,2.4-7.82l.51-1.66c.85-2.75,1.64-5.54,2.54-8.25,1.65-5,3.39-10,5.25-15,2-5.4,4.17-10.76,6.39-16.06,1.17-2.68,2.33-5.35,3.49-8,.91-2.09,1.82-4.12,2.84-6.16.25-.59.56-1.18.81-1.77,1-2,1.93-4,2.85-6,.3-.53.56-1.12.81-1.66.61-1.13,1.17-2.25,1.73-3.38.2-.37.36-.75.56-1.12l1.83-3.55c.82-1.61,1.63-3.22,2.5-4.77l1.38-2.58c.1-.16.15-.27.25-.43.41-.8.87-1.61,1.33-2.42,3.89-6.92,7.93-13.75,12.19-20.53,1.59-2.53,3.23-5,4.88-7.53,3.29-5,6.68-9.91,10.24-14.81q7.58-10.52,15.64-20.4c5.07-6.16,10.24-12.1,15.58-17.95q3.2-3.5,6.54-7,3.58-3.74,7.16-7.31c2.45-2.39,4.89-4.78,7.38-7.17,5.41-5.26,11-10.26,16.66-15.11,2.08-1.79,4.22-3.54,6.36-5.23,2.66-2.18,5.32-4.3,8-6.43a5.46,5.46,0,0,1,.89-.76c2.09-1.64,4.23-3.28,6.37-4.86a7,7,0,0,1,.89-.6c1.82-1.48,3.7-2.84,5.59-4.16,2.35-1.69,4.75-3.34,7.16-5,2-1.48,4.08-2.85,6.12-4.16,2.14-1.48,4.34-2.86,6.54-4.23a1.17,1.17,0,0,1,.26-.17q3.38-2.13,6.91-4.28c3.46-2.15,7-4.19,10.48-6.17,3-1.76,6-3.42,9.07-5s6.09-3.26,9.19-4.81,6.14-3.1,9.29-4.6q2.76-1.34,5.52-2.51c1.26-.66,2.57-1.22,3.88-1.84.58-.27,1.16-.5,1.69-.72,3.94-1.78,7.93-3.46,11.93-5,3.37-1.4,6.74-2.75,10.16-4,3.26-1.19,6.47-2.37,9.79-3.5a11.21,11.21,0,0,1,1.47-.57.44.44,0,0,1,.27-.11c1.58-.51,3.16-1,4.79-1.53,1.9-.68,3.85-1.31,5.75-1.88,3.32-1.08,6.58-2,9.91-3,1.53-.51,3.05-1,4.59-1.32,3.21-.92,6.43-1.78,9.7-2.6.79-.23,1.53-.4,2.33-.58,3.06-.75,6.12-1.46,9.24-2.16.05,0,.15-.11.21-.06a1.53,1.53,0,0,1,.47-.11c3.75-.83,7.55-1.6,11.36-2.32,3.17-.65,6.39-1.2,9.57-1.74,2.11-.42,4.28-.73,6.45-1,.9-.18,1.85-.31,2.8-.43l5.08-.75c1.38-.14,2.75-.32,4.18-.51,3-.39,6-.72,9-1.05,2.75-.27,5.5-.54,8.26-.76,2.17-.15,4.45-.36,6.67-.46,6.57-.46,13.2-.76,19.83-.91h.31c.95,0,1.9,0,2.86,0q9.45-.13,18.8.08c1.22,0,2.39.06,3.56.09,2.49,0,4.93.15,7.33.37,4.67.22,9.29.54,13.92,1,2.61.21,5.21.47,7.76.79s5.16.58,7.77.89c.59,0,1.12.14,1.7.23,4.31.55,8.57,1.15,12.88,1.85l.86.14c2.82.47,5.64.94,8.47,1.46,3.14.52,6.28,1.14,9.43,1.82.8.14,1.65.33,2.45.47l7.19,1.6c.81.19,1.55.39,2.35.53,2.3.59,4.59,1.12,6.88,1.71q15,3.83,29.64,8.7l5.34,1.8,2.89,1h.06c-12.83,8.54-27.43,29.83-32.6,50.95-8.5,34.41,3.12,68.81,27,89.41a93.22,93.22,0,0,0-25.15,44.43c-11.76,47.85,15.11,95.55,59.92,106.58a72.13,72.13,0,0,0,13.63,2c3.88,35.15,27.72,65.15,62.07,73.59a80.3,80.3,0,0,0,59.45-8.71A80.26,80.26,0,0,0,853,482.07c25.07,6.15,50.45-.45,70-15.88C923.3,471.33,923.52,476.57,923.63,481.77Z"/><path class="cls-3" d="M696.94,113.78c-4.56-2.4-9.18-4.74-13.79-7,.8.36,1.61.71,2.41,1.12,2.74,1.32,5.42,2.69,8.1,4.12s5.05,2.65,7.57,4a17.61,17.61,0,0,1,2.2,1.23C701.29,116.07,699.14,114.9,696.94,113.78Z"/><path class="cls-3" d="M710.52,121.29c-2-1.13-4-2.31-6-3.43,1.88,1,3.81,2.09,5.69,3.17A4,4,0,0,1,710.52,121.29Z"/><path class="cls-3" d="M769.13,162.1c-1.35-1.14-2.7-2.22-4.1-3.36.75.57,1.51,1.19,2.27,1.81C767.89,161.07,768.54,161.59,769.13,162.1Z"/><path class="cls-3" d="M784.6,175.57c2.38,2.07,4.71,4.25,7,6.43,1.47,1.34,2.87,2.69,4.28,4.1,2.34,2.33,4.61,4.62,6.95,7,.76.78,1.51,1.56,2.33,2.39.43.52,1,1.09,1.41,1.61Q796,185.92,784.6,175.57Z"/><g class="cls-4"><circle class="cls-5" cx="431.36" cy="830.06" r="58.37"/><circle class="cls-6" cx="659.25" cy="530.04" r="52.69"/><circle class="cls-7" cx="548.19" cy="676.47" r="57.64"/><circle class="cls-8" cx="645.16" cy="633.75" r="49.31" transform="translate(-187.6 986.41) rotate(-67.44)"/><circle class="cls-9" cx="608.72" cy="896.54" r="49.96"/><circle class="cls-10" cx="387.05" cy="245.09" r="52.69"/><circle class="cls-11" cx="232.98" cy="303.79" r="40.53"/><circle class="cls-12" cx="544.75" cy="585.1" r="19.36"/><circle class="cls-13" cx="391.87" cy="417.07" r="56.29" transform="translate(-61.38 67.68) rotate(-9.16)"/><circle class="cls-14" cx="211.84" cy="471.3" r="83.76" transform="translate(-304.66 486.12) rotate(-67.44)"/><circle class="cls-15" cx="494.56" cy="287.75" r="28.37"/><circle class="cls-16" cx="149.46" cy="583.58" r="20.64"/><circle class="cls-17" cx="375.85" cy="662.74" r="91.19"/><circle class="cls-18" cx="539.79" cy="800.4" r="52.69"/><circle class="cls-19" cx="428.13" cy="538.91" r="52.69"/><circle class="cls-20" cx="682.63" cy="754.14" r="88.71" transform="translate(-275.69 1095.22) rotate(-67.44)"/><circle class="cls-21" cx="754.31" cy="635.37" r="48.64"/></g><path class="cls-22" d="M924.65,514.22a7,7,0,0,0-.08,1.12c0,.21-.05.37-.05.53-.19,3.08-.39,6.16-.65,9.19-.16,2.23-.32,4.47-.54,6.65l-.27,2.39c0,.64-.08,1.28-.17,1.86,0,.21,0,.37,0,.59-.27,2.23-.49,4.46-.81,6.75a11.83,11.83,0,0,1-.19,1.33c0,.64-.13,1.28-.22,1.92a17.68,17.68,0,0,1-.28,1.75,2.72,2.72,0,0,1,0,.64c-.09.69-.18,1.44-.32,2.18-.47,3.2-1,6.39-1.5,9.54-.33,2-.65,4.09-1,6.12a2.26,2.26,0,0,0-.15.8c-.42,2.29-.85,4.58-1.33,6.82-.53,2.56-1.06,5.12-1.59,7.62a.72.72,0,0,0,0,.32c-1.11,5-2.33,9.87-3.55,14.78A433.55,433.55,0,0,1,885.71,670c-1.06,2.36-2.18,4.72-3.3,7s-2.29,4.61-3.46,6.92c-.81,1.61-1.63,3.22-2.44,4.78-.36.69-.77,1.45-1.12,2.14s-.77,1.4-1.18,2.1-.81,1.55-1.22,2.36c-.56,1-1.07,1.93-1.58,2.85-.93,1.61-1.84,3.27-2.76,4.88-.26.43-.52.92-.77,1.4-1.33,2.2-2.61,4.46-3.94,6.66s-2.72,4.41-4.11,6.62a1.82,1.82,0,0,1-.36.54c-.87,1.45-1.79,2.9-2.72,4.3-1.64,2.58-3.33,5.11-5,7.64-2,3-4.07,5.93-6.13,8.84q-4.1,5.69-8.38,11.24c-2.51,3.28-5.1,6.51-7.7,9.72-.27.33-.53.67-.79,1l-.3.35c-2.26,2.77-4.57,5.5-6.91,8.22l-1.08,1.23c-5.62,6.47-11.38,12.81-17.41,18.93-3,3.08-6,6-9,8.89-5.88,5.7-11.91,11.19-18.17,16.52a10.52,10.52,0,0,1-.93.77c-2.82,2.39-5.63,4.79-8.5,7.08-1.62,1.31-3.24,2.61-4.91,3.82a2.7,2.7,0,0,1-.47.38c-.31.27-.62.49-.94.76-2.4,1.86-4.8,3.71-7.25,5.47-1.46,1.14-3,2.23-4.55,3.33-1.25.93-2.51,1.86-3.76,2.68-1.41,1-2.82,2-4.23,3-.84.55-1.73,1.15-2.62,1.7-1.25.93-2.56,1.81-3.87,2.63-4.45,3-9,5.82-13.56,8.57-1.68,1-3.4,2.09-5.13,3.08-.95.61-1.94,1.16-2.88,1.71-2,1.16-4,2.32-6.09,3.42q-14.31,8-29.44,15c-2.52,1.17-5.05,2.29-7.62,3.4-3.32,1.45-6.58,2.85-9.89,4.19-6.63,2.69-13.26,5.22-20,7.54-2.16.79-4.37,1.53-6.53,2.21-1.9.68-3.85,1.31-5.74,1.88-3.32,1.08-6.59,2-9.91,3-1.53.51-3.06,1-4.59,1.32-1.16.34-2.27.69-3.38,1-2.11.58-4.22,1.16-6.33,1.63-.95.28-1.9.52-2.85.75-3,.75-5.91,1.45-8.92,2-2.33.58-4.7,1.05-7.08,1.53a10.25,10.25,0,0,1-1.8.36c-3.27.7-6.55,1.3-9.83,1.85-5.65,1.08-11.36,1.94-17,2.65-1.27.13-2.54.32-3.81.45-3,.39-6.08.77-9.15,1.05l-.28,0c-4.09.43-8.17.78-12.25,1.09l-2.78.22-1.06,0q-9.56.63-19.08.82l-1,0q-8.34.13-16.66,0l-3.77,0c-1.22,0-2.45-.06-3.61-.09-2.45-.05-4.89-.16-7.28-.37-4.68-.22-9.35-.54-14-1-2.55-.21-5.1-.48-7.6-.79a.1.1,0,0,1-.16,0c-2.61-.26-5.16-.58-7.77-.89l-2.07-.28c-4.47-.54-8.89-1.24-13.36-1.94-5.12-.84-10.18-1.8-15.29-2.8a431.53,431.53,0,0,1-100.53-33.55c-.7-.36-1.4-.71-2.1-1-1.87-.92-3.75-1.89-5.63-2.8-2.73-1.38-5.47-2.8-8.15-4.23-2.31-1.22-4.57-2.45-6.88-3.73s-4.51-2.5-6.71-3.78c-1.56-.92-3.12-1.84-4.67-2.71-2.91-1.74-5.81-3.54-8.66-5.33-1-.57-1.94-1.18-2.91-1.85-.48-.26-.91-.56-1.4-.87-1.29-.82-2.53-1.65-3.76-2.47-.49-.31-1-.67-1.51-1-2-1.28-4-2.62-5.92-4-1.84-1.23-3.61-2.52-5.39-3.76-1.08-.72-2.16-1.49-3.18-2.32-1.73-1.23-3.4-2.47-5.12-3.76l-3.4-2.63c-.54-.36-1.08-.83-1.62-1.24-1.94-1.44-3.89-3-5.78-4.55-1.13-.87-2.32-1.8-3.45-2.73-3.35-2.69-6.59-5.43-9.84-8.28-2.49-2.23-5-4.46-7.47-6.74-2.37-2.07-4.7-4.25-7-6.43-1.41-1.33-2.75-2.75-4.14-4.11h0c-3.16-3.09-6.32-6.16-9.4-9.33-2.5-2.65-5-5.36-7.5-8.12-.38-.41-.76-.78-1.14-1.19-2.61-2.92-5.22-5.89-7.73-8.86a.28.28,0,0,1-.16-.21c-2.56-2.91-5-5.94-7.46-8.91-1.15-1.46-2.29-2.92-3.44-4.43-.82-1-1.58-2-2.29-3-1.42-1.72-2.73-3.5-4-5.27-.33-.42-.66-.84-.93-1.26-1.31-1.72-2.57-3.44-3.83-5.22-.49-.68-.93-1.36-1.42-2-.82-1.15-1.64-2.3-2.46-3.5-.39-.52-.72-1.05-1.1-1.57q-2.05-3-4.11-6.12l-.06,0a.28.28,0,0,0-.1-.16c-2.91-4.45-5.77-8.95-8.57-13.56-.28-.47-.56-.94-.88-1.41-1-1.83-2.15-3.67-3.25-5.55q-10.26-17.7-19-36.58c-1.17-2.52-2.29-5.05-3.4-7.62-1.45-3.31-2.85-6.57-4.19-9.89-3.65-9-7-18-10-27.11-.68-2-1.3-3.9-1.93-5.9v-.11c-1.14-3.47-2.17-7-3.15-10.49-.34-1-.57-1.84-.8-2.74-.86-3.11-1.67-6.28-2.48-9.39a2.09,2.09,0,0,1-.24-1c-1-3.7-1.91-7.44-2.73-11.14q-.87-3.72-1.59-7.45c-.12-.58-.24-1.21-.36-1.79-.65-3.07-1.25-6.19-1.74-9.3a3,3,0,0,1-.18-.85c-.6-3.44-1.2-6.87-1.65-10.31A419.89,419.89,0,0,1,73.08,449c.08-1.22.21-2.44.4-3.67a.15.15,0,0,1,0-.21c0-.43.09-.8.13-1.22.17-1.87.4-3.73.67-5.59.09-1.06.23-2.07.36-3.09,0-.37.14-.79.19-1.22.13-1.12.27-2.23.46-3.35,0-.32.09-.64.13-1,.19-1.33.37-2.72.61-4.05l.56-3.62.42-2.56c.28-1.7.61-3.41.9-5.11a4,4,0,0,0,.14-.75c.43-2.29.86-4.58,1.34-6.87.53-2.56,1.06-5.06,1.58-7.62a.44.44,0,0,0,0-.27c1.12-5,2.28-9.92,3.56-14.83a433.51,433.51,0,0,1,26.07-72.88c.26-.59.56-1.18.81-1.77,1-2,1.93-4,2.85-6,.3-.54.56-1.13.81-1.67.61-1.12,1.17-2.25,1.73-3.38.21-.37.36-.75.56-1.12.61-1.18,1.22-2.36,1.84-3.54.3-.7.66-1.34,1-2,.51-.91,1-1.83,1.48-2.74l1.38-2.58c.1-.16.15-.26.26-.43.4-.8.86-1.61,1.32-2.41,3.73-6.77,7.67-13.49,11.83-20.05l2.46-3.87c1.85-2.91,3.7-5.76,5.66-8.56s3.91-5.66,5.86-8.46A421,421,0,0,1,221,165.57c2.08-1.8,4.22-3.54,6.36-5.23,1.55-1.27,3.11-2.5,4.67-3.74s2.8-2.35,4.25-3.46c2.09-1.64,4.23-3.27,6.37-4.86s4.28-3.17,6.48-4.76c2.35-1.69,4.75-3.33,7.16-5,1.36-.93,2.67-1.86,4.08-2.74.68-.49,1.36-.93,2-1.42,2-1.32,4.13-2.69,6.23-4a1.19,1.19,0,0,0,.31-.22,1.18,1.18,0,0,1,.26-.16c2.25-1.43,4.56-2.86,6.91-4.29.53-.28,1.05-.61,1.63-.94,2.2-1.37,4.45-2.69,6.7-4,1.89-1.1,3.83-2.21,5.77-3.26,2.36-1.32,4.77-2.65,7.19-3.92,7.29-3.87,14.69-7.53,22.26-11,2.52-1.17,5-2.28,7.62-3.4,3.31-1.45,6.57-2.85,9.88-4.19,6.63-2.69,13.26-5.22,19.95-7.54,2.16-.79,4.37-1.53,6.53-2.21l3.48-1.19c.79-.23,1.53-.46,2.27-.69,3.32-1.08,6.59-2,9.91-3,1.53-.51,3.06-1,4.59-1.32,1.16-.34,2.26-.68,3.37-1,2.11-.58,4.22-1.15,6.34-1.62.79-.23,1.53-.41,2.32-.58,2.53-.7,5-1.28,7.55-1.81.63-.17,1.26-.29,1.9-.41a1.36,1.36,0,0,1,.47-.12c2.54-.59,5.07-1.12,7.61-1.6.1-.11.16-.11.26-.06,1.16-.29,2.33-.47,3.49-.65l.54-.1q7.66-1.5,15.35-2.67l.13,0c.9-.18,1.85-.3,2.8-.43l5.08-.75c1.38-.13,2.75-.32,4.18-.51,3-.38,6-.71,9-1l1.7-.16c11.3-1.14,22.59-1.78,33.86-2h.4c5.54-.1,11-.08,16.56,0,1.4,0,2.81,0,4.21.06,1.22,0,2.39.05,3.56.08,2.49,0,4.94.16,7.33.37,4.67.22,9.3.54,13.92,1,2.55.21,5.11.47,7.66.79a.08.08,0,0,1,.11,0c2.6.27,5.16.58,7.76.9A16.7,16.7,0,0,1,553,67c4.3.54,8.56,1.14,12.88,1.84.26,0,.53.1.85.14,2.82.47,5.64.94,8.47,1.46,2.29.43,4.53.92,6.82,1.34a427.58,427.58,0,0,1,59.25,16.45,92.2,92.2,0,0,0-32.44,50.84c-8.49,34.41,3.12,68.81,27,89.42a93.14,93.14,0,0,0-25.15,44.42C599,320.76,625.85,368.47,670.66,379.5a72.13,72.13,0,0,0,13.63,2c3.88,35.15,27.72,65.14,62.07,73.59a80.38,80.38,0,0,0,59.46-8.71,80.26,80.26,0,0,0,48.67,35.24c25.07,6.15,51.8-1.14,70.12-15.94A408.77,408.77,0,0,1,924.65,514.22Z"/><path class="cls-23" d="M769.13,162.1c-1.35-1.14-2.7-2.22-4.1-3.36.75.57,1.51,1.19,2.27,1.81C767.89,161.07,768.54,161.59,769.13,162.1Z"/><path class="cls-1" d="M703.43,117.25c-2.14-1.18-4.29-2.35-6.49-3.47a47.35,47.35,0,0,1,4.29,2.24A17.61,17.61,0,0,1,703.43,117.25Z"/><path class="cls-1" d="M923.63,481.77c.09,3.92.12,7.8.09,11.67,0,2.81,0,5.63-.13,8.39,0,1.48-.05,3-.12,4.46,0,1.11-.06,2.17-.14,3.29-.07,1.7-.14,3.4-.21,5.05a6.91,6.91,0,0,0-.08,1.11c0,.21,0,.37,0,.53-.19,3.08-.39,6.17-.65,9.2s-.5,6.06-.81,9c0,.64-.08,1.28-.17,1.87-.31,2.92-.62,5.79-1,8.67,0,.63-.13,1.27-.22,1.91s-.13,1.17-.28,1.76c-.09,1-.22,1.91-.36,2.82-.47,3.19-1,6.39-1.5,9.53-.33,2-.65,4.1-1,6.12a2.31,2.31,0,0,0-.15.8c-.42,2.29-.85,4.58-1.33,6.82a9.51,9.51,0,0,1-.34,1.81c-.38,2.08-.81,4.11-1.3,6.13q-.85,4.17-1.89,8.32c-.54,2.14-1.07,4.32-1.66,6.46-.83,3.36-1.72,6.72-2.65,10-.81,2.87-1.75,5.68-2.62,8.52l-.06.2c-.93,3-1.79,6.05-2.78,9-1.64,5-3.39,10-5.25,15q-3,8.1-6.39,16c-1.16,2.68-2.33,5.36-3.49,8s-2.33,5.31-3.65,7.94c-1.11,2.57-2.38,5.14-3.66,7.66a1.73,1.73,0,0,1-.3.65c-1.42,2.89-2.85,5.74-4.43,8.58-.36.7-.77,1.45-1.12,2.15-.66,1.39-1.43,2.84-2.25,4.24a.28.28,0,0,1-.15.21,27,27,0,0,1-1.58,2.85c-1.13,2.09-2.3,4.24-3.53,6.28-1.33,2.21-2.61,4.46-3.94,6.67s-2.72,4.41-4.11,6.61a1.7,1.7,0,0,1-.36.54c-.87,1.45-1.79,2.91-2.72,4.31-.66,1.07-1.38,2.15-2.15,3.23-.93,1.5-1.9,3-2.88,4.41-2,3-4.07,5.92-6.13,8.83q-8.12,11.24-16.87,22c-5,6.16-10.2,12.11-15.59,18q-3.18,3.5-6.54,7-3.57,3.74-7.16,7.32l-7.33,7.16c-5,4.67-10,9.29-15.2,13.75-2.6,2.23-5.21,4.41-7.87,6.59q-3.75,3-7.51,6.05a2.31,2.31,0,0,1-.47.38,8,8,0,0,0-.68.5c-2.5,2-5,3.82-7.51,5.73-1.46,1.15-3,2.24-4.55,3.33-1.25.88-2.51,1.81-3.76,2.68-2.25,1.59-4.55,3.18-6.85,4.72-1.25.92-2.56,1.8-3.87,2.63-2.09,1.37-4.24,2.79-6.38,4.17-2.36,1.48-4.77,3-7.18,4.4a12.25,12.25,0,0,1-1.57,1c-1.21.72-2.36,1.43-3.56,2.1-1,.6-1.94,1.15-2.88,1.7s-1.63,1-2.47,1.44c-1.2.71-2.41,1.38-3.62,2-1.67,1-3.35,1.92-5,2.81-.47.33-1,.55-1.47.83-2.52,1.32-5,2.65-7.61,3.93-3.09,1.66-6.24,3.16-9.4,4.66-3.67,1.77-7.35,3.5-11.08,5.12-7.41,3.34-14.88,6.42-22.51,9.24-3.79,1.46-7.58,2.81-11.43,4.12-9.32,3.28-18.86,6.19-28.52,8.73-3,.86-6.06,1.67-9.18,2.37-2.95.76-5.91,1.46-8.92,2.05-2.33.58-4.7,1.06-7.08,1.53a9.41,9.41,0,0,1-1.8.36,27.67,27.67,0,0,1-3,.54c-2.27.53-4.54,1-6.87,1.32-1,.18-2,.36-3.06.49-1.8.35-3.6.66-5.45.86-1.27.24-2.54.42-3.86.61-2.8.43-5.61.81-8.47,1.14-3,.38-6.08.77-9.15,1s-6,.61-8.95.83c-2.12.21-4.24.36-6.36.51-6.46.41-13,.71-19.61.85-7.38.16-14.7.1-22-.06-3.67-.13-7.28-.27-10.89-.46-7.28-.42-14.46-1-21.58-1.76a.09.09,0,0,1-.16,0c-3.3-.35-6.6-.76-9.84-1.16-4.47-.54-8.89-1.25-13.36-1.94-5.12-.85-10.18-1.8-15.29-2.81-1.12-.18-2.24-.37-3.31-.62l-.64-.14c-3.35-.67-6.66-1.4-10-2.17s-6.51-1.62-9.77-2.45c-7.36-1.91-14.68-4-21.89-6.32-2.4-.74-4.76-1.54-7.11-2.29-11.06-3.74-21.92-8-32.58-12.56-2.46-1-4.88-2.12-7.23-3.19-.38-.15-.75-.35-1.13-.5-2.36-1.07-4.66-2.13-6.91-3.3-.59-.26-1.18-.51-1.77-.82a16.13,16.13,0,0,1-1.45-.71q-2.25-1.06-4.51-2.29c-1.61-.76-3.27-1.57-4.88-2.44-1.07-.56-2.2-1.12-3.27-1.79-2.31-1.22-4.57-2.45-6.88-3.72-1.61-.82-3.16-1.69-4.72-2.61-.54-.3-1.08-.61-1.67-.92-1.66-1-3.33-2-5-3-2.91-1.74-5.81-3.53-8.66-5.33-1-.56-1.94-1.18-2.91-1.85-.48-.25-.91-.56-1.4-.87-1.29-.82-2.53-1.64-3.76-2.46-.49-.31-1-.67-1.51-1-2-1.29-4-2.62-5.92-4s-3.61-2.53-5.39-3.76c-1.08-.72-2.16-1.49-3.18-2.32-1.73-1.24-3.4-2.47-5.12-3.76l-3.4-2.64c-.54-.36-1.08-.82-1.62-1.24-1.94-1.44-3.89-3-5.78-4.54s-3.56-2.84-5.29-4.29c-5.24-4.4-10.43-8.85-15.47-13.46q-11.28-10.35-21.95-21.5c-4.67-5-9.29-10-13.75-15.2-2.23-2.6-4.41-5.21-6.59-7.87-1.91-2.35-3.82-4.69-5.67-7-.82-1-1.58-2-2.29-3-1.42-1.72-2.73-3.49-4-5.27-.33-.42-.66-.83-.93-1.25-1.75-2.4-3.55-4.81-5.25-7.26-.82-1.15-1.64-2.3-2.46-3.51-.39-.52-.72-1-1.1-1.56q-2.05-3-4.11-6.12l-.06-.06c0-.05-.05-.1-.1-.15-1.43-2.2-2.91-4.45-4.39-6.7s-2.81-4.56-4.18-6.86c-.28-.47-.56-.95-.88-1.42-.06-.05-.11-.15-.17-.2-1-1.79-2.14-3.57-3.08-5.35-.61-.89-1.1-1.78-1.6-2.67a21.59,21.59,0,0,1-1.1-1.94c-1.27-2.15-2.48-4.3-3.65-6.5-1.65-3.05-3.26-6.09-4.81-9.19A420.69,420.69,0,0,1,79.81,584.13q-.87-3.72-1.59-7.44c-.12-.58-.24-1.22-.36-1.8-.65-3.06-1.25-6.18-1.74-9.3a2.88,2.88,0,0,1-.18-.85c-.29-1.53-.54-3.11-.73-4.7-.36-1.85-.67-3.7-.92-5.61-.25-1.69-.5-3.38-.69-5.13a15.13,15.13,0,0,1-.32-2.27c-.45-3.66-.9-7.31-1.3-11q-1.19-10.73-1.73-21.61c-.32-4.77-.47-9.54-.58-14.32-.08-3.92-.11-7.79-.09-11.67,0-2.81,0-5.62.14-8.39,0-1.48,0-3,.11-4.46,0-1.11.06-2.17.15-3.29.06-2.07.17-4.09.29-6.16,0-.21,0-.37,0-.53.2-3.08.4-6.16.65-9.19.24-3.62.59-7.18,1-10.74a.17.17,0,0,1,0-.22c.27-2.28.48-4.57.8-6.81.09-1.06.23-2.07.36-3.08,0-.37.14-.8.19-1.23.13-1.11.27-2.23.46-3.35.18-1.33.37-2.61.6-3.89A4.08,4.08,0,0,1,74.5,426l.56-3.62c.42-2.55.84-5.16,1.32-7.67a3.72,3.72,0,0,0,.14-.74c.43-2.29.86-4.58,1.34-6.88a9.8,9.8,0,0,1,.33-1.75c.38-2,.82-3.95,1.25-5.87a.41.41,0,0,0,0-.26q.87-4.17,1.89-8.32c.54-2.19,1.08-4.32,1.67-6.51.83-3.36,1.71-6.67,2.65-10,.74-2.64,1.61-5.21,2.4-7.82l.51-1.66c.86-2.75,1.64-5.54,2.54-8.25,1.65-5,3.4-10,5.25-15,2-5.4,4.17-10.75,6.4-16,1.16-2.68,2.32-5.36,3.48-8s2.33-5.31,3.65-7.93c1-2,1.93-4,2.85-6,.3-.54.56-1.13.81-1.66.61-1.13,1.17-2.25,1.73-3.38.21-.38.36-.75.56-1.13.86-1.87,1.83-3.75,2.85-5.58.51-.91,1-1.82,1.48-2.74l1.38-2.57c.1-.16.15-.27.26-.43.4-.81.86-1.61,1.32-2.42,3.73-6.76,7.67-13.48,11.83-20a2.28,2.28,0,0,1,.36-.49c.67-1.13,1.38-2.26,2.1-3.39.88-1.4,1.8-2.8,2.78-4.14.92-1.51,1.9-3,2.88-4.42,1.95-2.85,3.91-5.65,5.86-8.45,5.52-7.6,11.19-15.1,17.14-22.34,5.07-6.16,10.24-12.11,15.58-17.95q3.2-3.5,6.54-7,3.58-3.74,7.17-7.32c2.44-2.38,4.88-4.77,7.38-7.16,7.43-7.06,15.09-13.8,23-20.34,2.66-2.18,5.32-4.31,8-6.43l8.15-6.23c5.53-4.1,11.13-8,16.83-11.87,2.72-1.81,5.49-3.62,8.27-5.44a1.13,1.13,0,0,0,.31-.21,1.17,1.17,0,0,1,.26-.17c2.83-1.76,5.66-3.52,8.54-5.22,2.2-1.38,4.45-2.7,6.7-4,.74-.44,1.47-.88,2.15-1.27,1.21-.71,2.41-1.37,3.62-2,1.78-1,3.62-2,5.45-3,.58-.33,1.16-.61,1.74-.89,2.46-1.37,4.93-2.65,7.45-3.92,3-1.55,6.14-3.11,9.29-4.61s6.25-2.94,9.4-4.34c.58-.28,1.16-.5,1.69-.72q10.88-4.86,22.09-9.08c3.74-1.4,7.47-2.76,11.27-4.06a.39.39,0,0,1,.26-.11c2.74-1,5.48-1.87,8.27-2.73,6.64-2.15,13.34-4.16,20.14-6,2.11-.57,4.22-1.15,6.34-1.62.79-.23,1.53-.4,2.32-.58,2.53-.69,5-1.28,7.55-1.81a8.16,8.16,0,0,1,1.69-.35c.05-.06.15-.11.21-.06a1.63,1.63,0,0,1,.47-.12c2.54-.58,5.07-1.11,7.61-1.59.1-.11.16-.11.26-.06,1.16-.29,2.33-.48,3.49-.66,3.17-.65,6.4-1.2,9.57-1.74,2.11-.42,4.28-.73,6.45-1,.9-.17,1.85-.3,2.8-.43,3.07-.49,6.14-.87,9.26-1.26,3-.38,6-.71,9-1,2.75-.27,5.51-.54,8.26-.76,2.17-.15,4.45-.36,6.68-.46,6.57-.46,13.19-.77,19.82-.91,7.37-.16,14.7-.1,22,.06,3.67.13,7.28.27,10.89.46,7.28.42,14.45,1,21.58,1.76a.08.08,0,0,1,.11,0c3.19.35,6.33.71,9.47,1.12,4.3.54,8.56,1.14,12.88,1.85l.85.14c2.82.47,5.64.94,8.47,1.46,2.29.43,4.53.91,6.82,1.34a20.35,20.35,0,0,1,2.61.47c.8.14,1.65.34,2.45.48l7.2,1.6c.8.19,1.54.39,2.34.53,2.3.59,4.59,1.12,6.88,1.71q15,3.81,29.64,8.7l5.35,1.8,2.88,1h.06c7.48,2.65,14.6,5.36-.16.11a92.16,92.16,0,0,0-32.44,50.84c-8.49,34.41,3.12,68.81,27,89.41a93.23,93.23,0,0,0-25.15,44.42c-11.76,47.85,15.11,95.56,59.92,106.59a72.13,72.13,0,0,0,13.63,2c3.88,35.15,27.72,65.15,62.07,73.59a80.33,80.33,0,0,0,59.46-8.71A80.31,80.31,0,0,0,853,482.07c25.07,6.15,50.45-.45,70-15.89C923.3,471.32,923.52,476.57,923.63,481.77Z"/><path class="cls-24" d="M924.65,514.22a7,7,0,0,0-.08,1.12c0,.21-.05.37-.05.53-.19,3.08-.39,6.16-.65,9.19-.16,2.23-.32,4.47-.54,6.65l-.27,2.39c0,.64-.08,1.28-.17,1.86,0,.21,0,.37,0,.59-.27,2.23-.49,4.46-.81,6.75a11.83,11.83,0,0,1-.19,1.33c0,.64-.13,1.28-.22,1.92a17.68,17.68,0,0,1-.28,1.75,2.72,2.72,0,0,1,0,.64c-.09.69-.18,1.44-.32,2.18-.47,3.2-1,6.39-1.5,9.54-.33,2-.65,4.09-1,6.12a2.26,2.26,0,0,0-.15.8c-.42,2.29-.85,4.58-1.33,6.82-.53,2.56-1.06,5.12-1.59,7.62a.72.72,0,0,0,0,.32c-1.11,5-2.33,9.87-3.55,14.78A433.55,433.55,0,0,1,885.71,670c-1.06,2.36-2.18,4.72-3.3,7s-2.29,4.61-3.46,6.92c-.81,1.61-1.63,3.22-2.44,4.78-.36.69-.77,1.45-1.12,2.14s-.77,1.4-1.18,2.1-.81,1.55-1.22,2.36c-.56,1-1.07,1.93-1.58,2.85-.93,1.61-1.84,3.27-2.76,4.88-.26.43-.52.92-.77,1.4-1.33,2.2-2.61,4.46-3.94,6.66s-2.72,4.41-4.11,6.62a1.82,1.82,0,0,1-.36.54c-.87,1.45-1.79,2.9-2.72,4.3-1.64,2.58-3.33,5.11-5,7.64-2,3-4.07,5.93-6.13,8.84q-4.1,5.69-8.38,11.24c-2.51,3.28-5.1,6.51-7.7,9.72-.27.33-.53.67-.79,1l-.3.35c-2.26,2.77-4.57,5.5-6.91,8.22l-1.08,1.23c-5.62,6.47-11.38,12.81-17.41,18.93-3,3.08-6,6-9,8.89-5.88,5.7-11.91,11.19-18.17,16.52a10.52,10.52,0,0,1-.93.77c-2.82,2.39-5.63,4.79-8.5,7.08-1.62,1.31-3.24,2.61-4.91,3.82a2.7,2.7,0,0,1-.47.38c-.31.27-.62.49-.94.76-2.4,1.86-4.8,3.71-7.25,5.47-1.46,1.14-3,2.23-4.55,3.33-1.25.93-2.51,1.86-3.76,2.68-1.41,1-2.82,2-4.23,3-.84.55-1.73,1.15-2.62,1.7-1.25.93-2.56,1.81-3.87,2.63-4.45,3-9,5.82-13.56,8.57-1.68,1-3.4,2.09-5.13,3.08-.95.61-1.94,1.16-2.88,1.71-2,1.16-4,2.32-6.09,3.42q-14.31,8-29.44,15c-2.52,1.17-5.05,2.29-7.62,3.4-3.32,1.45-6.58,2.85-9.89,4.19-6.63,2.69-13.26,5.22-20,7.54-2.16.79-4.37,1.53-6.53,2.21-1.9.68-3.85,1.31-5.74,1.88-3.32,1.08-6.59,2-9.91,3-1.53.51-3.06,1-4.59,1.32-1.16.34-2.27.69-3.38,1-2.11.58-4.22,1.16-6.33,1.63-.95.28-1.9.52-2.85.75-3,.75-5.91,1.45-8.92,2-2.33.58-4.7,1.05-7.08,1.53a10.25,10.25,0,0,1-1.8.36c-3.27.7-6.55,1.3-9.83,1.85-5.65,1.08-11.36,1.94-17,2.65-1.27.13-2.54.32-3.81.45-3,.39-6.08.77-9.15,1.05l-.28,0c-4.09.43-8.17.78-12.25,1.09l-2.78.22-1.06,0q-9.56.63-19.08.82l-1,0q-8.34.13-16.66,0l-3.77,0c-1.22,0-2.45-.06-3.61-.09-2.45-.05-4.89-.16-7.28-.37-4.68-.22-9.35-.54-14-1-2.55-.21-5.1-.48-7.6-.79a.1.1,0,0,1-.16,0c-2.61-.26-5.16-.58-7.77-.89l-2.07-.28c-4.47-.54-8.89-1.24-13.36-1.94-5.12-.84-10.18-1.8-15.29-2.8a431.53,431.53,0,0,1-100.53-33.55c-.7-.36-1.4-.71-2.1-1-1.87-.92-3.75-1.89-5.63-2.8-2.73-1.38-5.47-2.8-8.15-4.23-2.31-1.22-4.57-2.45-6.88-3.73s-4.51-2.5-6.71-3.78c-1.56-.92-3.12-1.84-4.67-2.71-2.91-1.74-5.81-3.54-8.66-5.33-1-.57-1.94-1.18-2.91-1.85-.48-.26-.91-.56-1.4-.87-1.29-.82-2.53-1.65-3.76-2.47-.49-.31-1-.67-1.51-1-2-1.28-4-2.62-5.92-4-1.84-1.23-3.61-2.52-5.39-3.76-1.08-.72-2.16-1.49-3.18-2.32-1.73-1.23-3.4-2.47-5.12-3.76l-3.4-2.63c-.54-.36-1.08-.83-1.62-1.24-1.94-1.44-3.89-3-5.78-4.55-1.13-.87-2.32-1.8-3.45-2.73-3.35-2.69-6.59-5.43-9.84-8.28-2.49-2.23-5-4.46-7.47-6.74-2.37-2.07-4.7-4.25-7-6.43-1.41-1.33-2.75-2.75-4.14-4.11h0c-3.16-3.09-6.32-6.16-9.4-9.33-2.5-2.65-5-5.36-7.5-8.12-.38-.41-.76-.78-1.14-1.19-2.61-2.92-5.22-5.89-7.73-8.86a.28.28,0,0,1-.16-.21c-2.56-2.91-5-5.94-7.46-8.91-1.15-1.46-2.29-2.92-3.44-4.43-.82-1-1.58-2-2.29-3-1.42-1.72-2.73-3.5-4-5.27-.33-.42-.66-.84-.93-1.26-1.31-1.72-2.57-3.44-3.83-5.22-.49-.68-.93-1.36-1.42-2-.82-1.15-1.64-2.3-2.46-3.5-.39-.52-.72-1.05-1.1-1.57q-2.05-3-4.11-6.12l-.06,0a.28.28,0,0,0-.1-.16c-2.91-4.45-5.77-8.95-8.57-13.56-.28-.47-.56-.94-.88-1.41-1-1.83-2.15-3.67-3.25-5.55q-10.26-17.7-19-36.58c-1.17-2.52-2.29-5.05-3.4-7.62-1.45-3.31-2.85-6.57-4.19-9.89-3.65-9-7-18-10-27.11-.68-2-1.3-3.9-1.93-5.9v-.11c-1.14-3.47-2.17-7-3.15-10.49-.34-1-.57-1.84-.8-2.74-.86-3.11-1.67-6.28-2.48-9.39a2.09,2.09,0,0,1-.24-1c-1-3.7-1.91-7.44-2.73-11.14q-.87-3.72-1.59-7.45c-.12-.58-.24-1.21-.36-1.79-.65-3.07-1.25-6.19-1.74-9.3a3,3,0,0,1-.18-.85c-.6-3.44-1.2-6.87-1.65-10.31A419.89,419.89,0,0,1,73.08,449c.08-1.22.21-2.44.4-3.67a.15.15,0,0,1,0-.21c0-.43.09-.8.13-1.22.17-1.87.4-3.73.67-5.59.09-1.06.23-2.07.36-3.09,0-.37.14-.79.19-1.22.13-1.12.27-2.23.46-3.35,0-.32.09-.64.13-1,.19-1.33.37-2.72.61-4.05l.56-3.62.42-2.56c.28-1.7.61-3.41.9-5.11a4,4,0,0,0,.14-.75c.43-2.29.86-4.58,1.34-6.87.53-2.56,1.06-5.06,1.58-7.62a.44.44,0,0,0,0-.27c1.12-5,2.28-9.92,3.56-14.83a433.51,433.51,0,0,1,26.07-72.88c.26-.59.56-1.18.81-1.77,1-2,1.93-4,2.85-6,.3-.54.56-1.13.81-1.67.61-1.12,1.17-2.25,1.73-3.38.21-.37.36-.75.56-1.12.61-1.18,1.22-2.36,1.84-3.54.3-.7.66-1.34,1-2,.51-.91,1-1.83,1.48-2.74l1.38-2.58c.1-.16.15-.26.26-.43.4-.8.86-1.61,1.32-2.41,3.73-6.77,7.67-13.49,11.83-20.05l2.46-3.87c1.85-2.91,3.7-5.76,5.66-8.56s3.91-5.66,5.86-8.46A421,421,0,0,1,221,165.57c2.08-1.8,4.22-3.54,6.36-5.23,1.55-1.27,3.11-2.5,4.67-3.74s2.8-2.35,4.25-3.46c2.09-1.64,4.23-3.27,6.37-4.86s4.28-3.17,6.48-4.76c2.35-1.69,4.75-3.33,7.16-5,1.36-.93,2.67-1.86,4.08-2.74.68-.49,1.36-.93,2-1.42,2-1.32,4.13-2.69,6.23-4a1.19,1.19,0,0,0,.31-.22,1.18,1.18,0,0,1,.26-.16c2.25-1.43,4.56-2.86,6.91-4.29.53-.28,1.05-.61,1.63-.94,2.2-1.37,4.45-2.69,6.7-4,1.89-1.1,3.83-2.21,5.77-3.26,2.36-1.32,4.77-2.65,7.19-3.92,7.29-3.87,14.69-7.53,22.26-11,2.52-1.17,5-2.28,7.62-3.4,3.31-1.45,6.57-2.85,9.88-4.19,6.63-2.69,13.26-5.22,19.95-7.54,2.16-.79,4.37-1.53,6.53-2.21l3.48-1.19c.79-.23,1.53-.46,2.27-.69,3.32-1.08,6.59-2,9.91-3,1.53-.51,3.06-1,4.59-1.32,1.16-.34,2.26-.68,3.37-1,2.11-.58,4.22-1.15,6.34-1.62.79-.23,1.53-.41,2.32-.58,2.53-.7,5-1.28,7.55-1.81.63-.17,1.26-.29,1.9-.41a1.36,1.36,0,0,1,.47-.12c2.54-.59,5.07-1.12,7.61-1.6.1-.11.16-.11.26-.06,1.16-.29,2.33-.47,3.49-.65l.54-.1q7.66-1.5,15.35-2.67l.13,0c.9-.18,1.85-.3,2.8-.43l5.08-.75c1.38-.13,2.75-.32,4.18-.51,3-.38,6-.71,9-1l1.7-.16c11.3-1.14,22.59-1.78,33.86-2h.4c5.54-.1,11-.08,16.56,0,1.4,0,2.81,0,4.21.06,1.22,0,2.39.05,3.56.08,2.49,0,4.94.16,7.33.37,4.67.22,9.3.54,13.92,1,2.55.21,5.11.47,7.66.79a.08.08,0,0,1,.11,0c2.6.27,5.16.58,7.76.9A16.7,16.7,0,0,1,553,67c4.3.54,8.56,1.14,12.88,1.84.26,0,.53.1.85.14,2.82.47,5.64.94,8.47,1.46,2.29.43,4.53.92,6.82,1.34a427.58,427.58,0,0,1,59.25,16.45,92.2,92.2,0,0,0-32.44,50.84c-8.49,34.41,3.12,68.81,27,89.42a93.14,93.14,0,0,0-25.15,44.42C599,320.76,625.85,368.47,670.66,379.5a72.13,72.13,0,0,0,13.63,2c3.88,35.15,27.72,65.14,62.07,73.59a80.38,80.38,0,0,0,59.46-8.71,80.26,80.26,0,0,0,48.67,35.24c25.07,6.15,51.8-1.14,70.12-15.94A408.77,408.77,0,0,1,924.65,514.22Z"/><path class="cls-25" d="M923.73,515.3a8.3,8.3,0,0,0-.09,1.11c0,.21,0,.38,0,.53-.2,3.09-.4,6.17-.65,9.2-.16,2.23-.33,4.46-.55,6.64-.08.8-.17,1.6-.26,2.4,0,.63-.08,1.27-.17,1.86,0,.21-.05.37,0,.58-.27,2.24-.49,4.47-.81,6.76a12.52,12.52,0,0,1-.19,1.33c0,.64-.13,1.27-.22,1.91s-.14,1.17-.28,1.76a2.79,2.79,0,0,1,0,.64c-.09.69-.18,1.43-.33,2.18-.46,3.19-1,6.39-1.49,9.53-.33,2-.65,4.1-1,6.13a2.2,2.2,0,0,0-.14.79c-.43,2.3-.85,4.59-1.34,6.83-.52,2.55-1,5.11-1.58,7.62a.7.7,0,0,0-.05.32c-1.11,5-2.33,9.86-3.55,14.77a433.65,433.65,0,0,1-26.08,72.89c-1.07,2.35-2.18,4.71-3.3,7S879.2,682.71,878,685c-.81,1.61-1.63,3.22-2.44,4.77-.36.7-.77,1.45-1.12,2.15s-.77,1.4-1.18,2.09-.82,1.56-1.22,2.37c-.57,1-1.08,1.93-1.59,2.84-.92,1.61-1.84,3.28-2.76,4.89-.25.43-.51.91-.76,1.4-1.34,2.2-2.61,4.46-3.94,6.66s-2.72,4.41-4.11,6.62a1.77,1.77,0,0,1-.36.53c-.87,1.46-1.79,2.91-2.72,4.31-1.64,2.58-3.34,5.11-5,7.64-2,3-4.07,5.92-6.13,8.83q-4.09,5.7-8.38,11.25c-2.51,3.28-5.1,6.51-7.71,9.72-.26.33-.52.67-.79,1-.09.12-.19.23-.29.35q-3.4,4.16-6.92,8.22l-1.07,1.24c-5.62,6.46-11.38,12.81-17.42,18.92-3,3.09-6,6-9,8.9q-8.8,8.55-18.16,16.52a10.79,10.79,0,0,1-.94.76c-2.81,2.4-5.62,4.79-8.49,7.08-1.62,1.31-3.24,2.62-4.91,3.82a2.7,2.7,0,0,1-.47.39c-.31.27-.63.49-.94.76-2.4,1.85-4.8,3.71-7.26,5.46-1.46,1.15-3,2.24-4.54,3.34-1.25.92-2.51,1.85-3.76,2.68-1.41,1-2.82,2-4.24,3-.83.54-1.72,1.15-2.61,1.7-1.26.93-2.56,1.8-3.87,2.63-4.45,3-8.95,5.81-13.56,8.57-1.68,1-3.41,2.09-5.14,3.08-.94.6-1.93,1.16-2.88,1.71-2,1.15-4,2.31-6.08,3.42q-14.31,8-29.44,15c-2.53,1.17-5,2.28-7.63,3.4-3.31,1.45-6.57,2.85-9.88,4.19-6.63,2.69-13.26,5.22-19.95,7.54-2.16.79-4.37,1.53-6.53,2.21-1.9.68-3.85,1.3-5.75,1.87-3.31,1.08-6.58,2.06-9.91,3-1.52.51-3,1-4.58,1.32-1.16.34-2.27.68-3.38,1-2.11.58-4.22,1.15-6.33,1.62-1,.29-1.9.52-2.85.75-3,.76-5.91,1.46-8.93,2-2.32.58-4.69,1.06-7.07,1.54a9.41,9.41,0,0,1-1.8.35c-3.27.71-6.55,1.31-9.83,1.86-5.65,1.08-11.37,1.94-17,2.65-1.27.13-2.54.32-3.81.45-3,.38-6.08.77-9.16,1l-.27,0q-6.14.65-12.26,1.09c-.92.07-1.85.16-2.77.22-.35,0-.71,0-1.06,0q-9.56.63-19.08.82l-1,0q-8.34.15-16.66,0c-1.26,0-2.52,0-3.78-.05s-2.44,0-3.61-.08c-2.44-.05-4.88-.16-7.27-.37-4.68-.22-9.35-.55-14-1-2.55-.21-5.1-.47-7.6-.79-.06.06-.11.06-.16,0-2.61-.27-5.16-.58-7.77-.9l-2.07-.27c-4.47-.54-8.89-1.24-13.37-1.94-5.11-.85-10.17-1.8-15.28-2.8a431.76,431.76,0,0,1-100.54-33.55c-.69-.36-1.39-.72-2.09-1-1.87-.91-3.75-1.88-5.63-2.8-2.74-1.37-5.47-2.8-8.16-4.22-2.3-1.23-4.56-2.45-6.87-3.73s-4.51-2.5-6.71-3.78c-1.56-.92-3.12-1.85-4.68-2.71-2.9-1.75-5.8-3.54-8.65-5.34-1-.56-1.94-1.18-2.91-1.84-.48-.26-.91-.57-1.4-.88-1.29-.82-2.53-1.64-3.77-2.46-.48-.31-1-.67-1.5-1-2-1.28-4-2.62-5.93-4s-3.61-2.52-5.38-3.76c-1.08-.72-2.16-1.49-3.18-2.32-1.73-1.24-3.4-2.47-5.13-3.76l-3.4-2.64c-.53-.36-1.07-.82-1.61-1.23-1.95-1.45-3.89-3-5.78-4.55-1.13-.88-2.32-1.81-3.45-2.74-3.35-2.68-6.59-5.43-9.84-8.28-2.49-2.22-5-4.45-7.47-6.73-2.38-2.07-4.71-4.25-7-6.43-1.41-1.34-2.76-2.76-4.15-4.12h0c-3.16-3.09-6.32-6.16-9.41-9.33-2.49-2.66-5.05-5.36-7.49-8.12-.38-.42-.76-.78-1.14-1.2-2.61-2.91-5.22-5.88-7.73-8.85a.27.27,0,0,1-.16-.21c-2.56-2.92-5-5.94-7.46-8.91-1.15-1.46-2.29-2.92-3.44-4.44-.82-1-1.58-2-2.29-3-1.42-1.72-2.73-3.5-4-5.28a15,15,0,0,1-.93-1.25c-1.31-1.72-2.57-3.45-3.83-5.22-.49-.68-.93-1.36-1.42-2-.82-1.15-1.64-2.3-2.47-3.5-.38-.53-.71-1-1.09-1.57q-2.06-3-4.11-6.12l-.06-.05c0-.06-.05-.11-.11-.16-2.9-4.45-5.76-9-8.57-13.56-.27-.47-.55-.94-.88-1.41-1-1.84-2.14-3.67-3.25-5.56-6.83-11.79-13.19-24-19-36.57-1.17-2.53-2.29-5-3.4-7.63-1.46-3.31-2.85-6.57-4.2-9.88q-5.46-13.5-10-27.11c-.68-1.95-1.31-3.9-1.93-5.9v-.11c-1.13-3.48-2.16-7-3.14-10.49-.34-.95-.57-1.85-.8-2.74-.86-3.12-1.68-6.28-2.49-9.4a2.18,2.18,0,0,1-.23-.95c-1-3.69-1.91-7.44-2.73-11.13-.59-2.48-1.12-5-1.59-7.45-.12-.58-.24-1.22-.36-1.8-.65-3.06-1.25-6.18-1.74-9.3a2.89,2.89,0,0,1-.18-.84c-.6-3.44-1.21-6.88-1.65-10.32a419.35,419.35,0,0,1-2.74-105c.08-1.23.21-2.45.4-3.67a.17.17,0,0,1,0-.22c0-.42.09-.79.14-1.22q.25-2.79.67-5.58c.09-1.07.22-2.08.36-3.09,0-.37.14-.8.19-1.22.13-1.12.27-2.24.45-3.36,0-.32.1-.64.14-1,.19-1.33.37-2.71.61-4,.18-1.18.37-2.4.55-3.62.14-.86.29-1.71.43-2.56.28-1.7.61-3.41.89-5.11a3.32,3.32,0,0,0,.15-.75c.43-2.29.85-4.58,1.34-6.87.52-2.56,1-5.07,1.58-7.63a.48.48,0,0,0,0-.26c1.11-5,2.28-9.92,3.55-14.83a433.23,433.23,0,0,1,26.08-72.88c.25-.59.56-1.18.81-1.77,1-2,1.93-4,2.85-6,.3-.53.55-1.12.81-1.66.61-1.13,1.17-2.25,1.73-3.38.2-.38.35-.75.56-1.13l1.83-3.54c.31-.69.66-1.34,1-2,.51-.91,1-1.82,1.48-2.73l1.38-2.58c.1-.16.15-.27.25-.43.41-.81.87-1.61,1.33-2.42,3.73-6.76,7.67-13.48,11.83-20l2.46-3.88c1.85-2.9,3.7-5.75,5.65-8.56s3.91-5.65,5.87-8.45a421.05,421.05,0,0,1,70.46-76.87c2.08-1.79,4.22-3.54,6.36-5.23,1.54-1.26,3.11-2.49,4.67-3.73s2.79-2.35,4.25-3.46c2.09-1.64,4.23-3.28,6.37-4.86s4.28-3.17,6.47-4.76c2.36-1.69,4.76-3.34,7.17-5,1.36-.93,2.66-1.86,4.08-2.74.68-.49,1.36-.93,2-1.43,2-1.31,4.13-2.69,6.22-4a1.22,1.22,0,0,0,.32-.22,1,1,0,0,1,.26-.17c2.25-1.43,4.55-2.85,6.91-4.29.53-.27,1.05-.6,1.63-.93,2.19-1.38,4.45-2.7,6.7-4,1.89-1.1,3.83-2.2,5.77-3.25,2.36-1.33,4.77-2.65,7.18-3.92,7.3-3.87,14.7-7.54,22.27-11,2.52-1.17,5-2.29,7.62-3.4,3.31-1.45,6.57-2.85,9.88-4.2,6.63-2.68,13.26-5.22,19.95-7.53,2.16-.79,4.37-1.53,6.53-2.21l3.48-1.19c.79-.23,1.53-.46,2.27-.69,3.32-1.08,6.58-2,9.91-3,1.53-.51,3.05-1,4.59-1.32,1.16-.34,2.26-.69,3.37-1,2.11-.57,4.22-1.15,6.33-1.62.79-.23,1.53-.4,2.33-.58,2.53-.69,5-1.27,7.54-1.81.64-.17,1.27-.29,1.91-.41a1.53,1.53,0,0,1,.47-.11c2.54-.59,5.07-1.12,7.61-1.6.1-.11.15-.11.26-.06,1.16-.29,2.33-.47,3.49-.66l.54-.1q7.65-1.5,15.35-2.66l.13,0c.9-.18,1.85-.31,2.8-.44l5.08-.74c1.37-.14,2.75-.33,4.18-.52,3-.38,6-.71,9-1l1.7-.16c11.3-1.14,22.59-1.78,33.85-2h.41c5.53-.1,11.05-.08,16.56,0,1.4,0,2.81,0,4.21.06,1.22,0,2.39.06,3.56.08,2.49.06,4.93.16,7.33.38,4.67.22,9.29.54,13.92,1,2.55.21,5.1.48,7.66.79a.07.07,0,0,1,.1,0c2.61.26,5.16.58,7.77.89.59,0,1.12.14,1.7.23,4.31.55,8.57,1.14,12.88,1.85l.86.14c2.82.47,5.64.94,8.46,1.46,2.3.43,4.53.91,6.83,1.34a428,428,0,0,1,59.25,16.45A92.2,92.2,0,0,0,608,140.15c-8.5,34.41,3.12,68.81,27,89.41A93.22,93.22,0,0,0,609.82,274c-11.76,47.85,15.11,95.55,59.92,106.58a72,72,0,0,0,13.63,2c3.88,35.15,27.72,65.15,62.07,73.59a80.3,80.3,0,0,0,59.45-8.71,80.29,80.29,0,0,0,48.68,35.25c25.07,6.15,51.79-1.14,70.12-15.94A410.9,410.9,0,0,1,923.73,515.3Z"/></g></svg>